<svg
  width="32"
  height="32"
  viewBox="0 0 32 32"
  fill="none"
  xmlns="http://www.w3.org/2000/svg"
>
  <circle opacity="0.2" cx="16" cy="16" r="16" fill="#7B8E9F"></circle>
  <g filter="url(#filter0_d_234_6514)">
    <g clip-path="url(#clip0_234_6514)">
      <path
        d="M8.29609 23.656C8.40009 22.04 9.09609 20.512 10.2401 19.368L10.2721 19.336C10.5681 19.04 11.0401 19.04 11.3281 19.336L12.6081 20.616C12.9041 20.912 12.9041 21.384 12.6081 21.672L12.5761 21.704C11.4321 22.848 9.90409 23.544 8.28809 23.648L8.29609 23.656Z"
        fill="#F8AB59"
      ></path>
      <path
        d="M23.064 13.0721C22.216 9.90411 20.12 9.32811 18.976 8.91211C17.584 9.42411 16.104 10.2241 14.832 11.5041C14 12.3361 13.328 13.1281 12.784 13.8641C12.36 13.9201 11.04 14.1841 9.672 15.3921L8.096 16.7841C8 16.8721 7.976 17.0081 8.024 17.1201C8.072 17.2241 8.176 17.2801 8.28 17.2801C8.296 17.2801 8.312 17.2801 8.328 17.2801L11.384 16.4721C11.384 16.4721 11.448 16.5361 11.56 16.6481C11.344 17.0561 10.96 17.6241 10.952 17.6481C10.928 17.7441 10.952 17.8481 11.024 17.9121L13.968 20.8801C14.024 20.9361 14.096 20.9601 14.168 20.9601C14.192 20.9601 14.208 20.9601 14.232 20.9601C14.264 20.9601 14.824 20.6721 15.336 20.4001C15.464 20.5201 15.536 20.6001 15.536 20.6001L14.704 23.6721C14.68 23.8001 14.752 23.9201 14.864 23.9761C14.904 23.9921 14.944 24.0001 14.984 24.0001C15.064 24.0001 15.144 23.9681 15.2 23.9041L16.592 22.3281C17.8 20.9601 18.064 19.6401 18.12 19.2161C18.856 18.6721 19.656 18.0001 20.48 17.1681C21.744 15.9041 22.536 14.4401 23.048 13.0641L23.064 13.0721ZM18.952 14.7761C17.944 14.7761 17.128 13.9601 17.128 12.9521C17.128 11.9441 17.944 11.1281 18.952 11.1281C19.96 11.1281 20.776 11.9441 20.776 12.9521C20.776 13.9601 19.96 14.7761 18.952 14.7761Z"
        fill="white"
      ></path>
      <path
        d="M23.7201 8C23.5841 8 21.4321 8 18.9761 8.912C20.1201 9.328 22.0001 10.424 23.0641 13.072C23.9921 10.6 24.0001 8.424 24.0001 8.28C24.0001 8.128 23.8721 8 23.7201 8V8Z"
        fill="#FF5959"
      ></path>
      <path
        d="M9.90381 22.056C9.96781 21.144 10.3518 20.28 10.9998 19.64L11.0158 19.624C11.1838 19.456 11.4478 19.456 11.6158 19.624L12.3438 20.352C12.5118 20.52 12.5118 20.784 12.3438 20.952L12.3278 20.968C11.6798 21.616 10.8238 22.008 9.91181 22.064L9.90381 22.056Z"
        fill="#E16023"
      ></path>
      <path
        d="M23.0638 13.0721C22.7838 12.0401 22.3678 11.2961 21.9038 10.7361C21.5278 11.1441 21.1038 11.5841 20.5998 12.1041C20.7358 12.3601 20.8318 12.6481 20.8318 12.9601C20.8318 13.9921 19.9918 14.8321 18.9598 14.8321C18.6398 14.8321 18.3598 14.7361 18.0958 14.5921C16.6638 15.9921 14.9278 17.6481 12.7598 19.6561L13.9758 20.8801C14.0318 20.9361 14.1038 20.9601 14.2398 20.9521C14.2718 20.9521 14.8318 20.6641 15.3438 20.3921C15.4718 20.5121 15.5438 20.5921 15.5438 20.5921L15.2798 21.5601L14.8398 23.1761C14.7998 23.3281 14.7438 23.4881 14.7118 23.6401C14.6878 23.7681 14.7438 23.8961 14.8638 23.9521C14.9038 23.9681 14.9438 23.9761 14.9838 23.9761C15.0638 23.9761 15.1438 23.9441 15.1998 23.8801L16.5918 22.3041C17.7998 20.9361 18.0638 19.6161 18.1198 19.1921C18.8558 18.6481 19.6558 17.9761 20.4798 17.1441C21.7438 15.8801 22.5358 14.4161 23.0478 13.0481L23.0638 13.0721Z"
        fill="#CFD7DF"
      ></path>
      <path
        d="M23.0641 13.072C23.9921 10.6 24.0001 8.42403 24.0001 8.28003C23.6721 8.75203 23.0481 9.51203 21.7681 10.88C22.2641 11.456 22.7041 12.168 23.0721 13.072H23.0641Z"
        fill="#F73F3E"
      ></path>
    </g>
  </g>
  <defs>
    <filter
      id="filter0_d_234_6514"
      x="3"
      y="5"
      width="26"
      height="26"
      filterUnits="userSpaceOnUse"
      color-interpolation-filters="sRGB"
    >
      <feFlood flood-opacity="0" result="BackgroundImageFix"></feFlood>
      <feColorMatrix
        in="SourceAlpha"
        type="matrix"
        values="0 0 0 0 0 0 0 0 0 0 0 0 0 0 0 0 0 0 127 0"
        result="hardAlpha"
      ></feColorMatrix>
      <feOffset dy="2"></feOffset>
      <feGaussianBlur stdDeviation="2.5"></feGaussianBlur>
      <feColorMatrix
        type="matrix"
        values="0 0 0 0 0 0 0 0 0 0 0 0 0 0 0 0 0 0 0.55 0"
      ></feColorMatrix>
      <feBlend
        mode="normal"
        in2="BackgroundImageFix"
        result="effect1_dropShadow_234_6514"
      ></feBlend>
      <feBlend
        mode="normal"
        in="SourceGraphic"
        in2="effect1_dropShadow_234_6514"
        result="shape"
      ></feBlend>
    </filter>
    <clipPath id="clip0_234_6514">
      <rect
        width="16"
        height="16"
        fill="white"
        transform="translate(8 8)"
      ></rect>
    </clipPath>
  </defs>
</svg>
